<svg version="1.1" id="Layer_1" xmlns="http://www.w3.org/2000/svg" xmlns:xlink="http://www.w3.org/1999/xlink" x="0px" y="0px"
	 width="100%" viewBox="0 0 848 352" enable-background="new 0 0 848 352" xml:space="preserve">
<path fill="#000000" opacity="1.000000" stroke="none" 
	d="
M364.411530,181.906342 
	C368.208344,181.732681 368.451233,178.753937 369.359924,176.607849 
	C373.122406,167.722183 376.687225,158.753082 380.373322,149.834747 
	C383.069305,143.312012 385.149048,142.623108 391.408020,146.015869 
	C392.707336,146.720169 394.030884,147.379776 395.966003,148.382721 
	C398.904510,138.358856 401.735687,128.710587 404.556976,119.059441 
	C404.789703,118.263260 404.886169,117.422859 405.163422,116.644875 
	C406.252014,113.590103 407.564941,110.436272 411.210632,110.027405 
	C414.931305,109.610146 416.795807,112.547302 418.348602,115.344215 
	C425.460602,128.154419 432.463013,141.025482 439.572906,153.836868 
	C444.093536,161.982635 448.873077,169.987793 453.253571,178.206802 
	C455.095001,181.661926 457.810028,182.014786 461.147949,182.007339 
	C487.974518,181.947449 514.801270,181.984100 541.627930,181.955200 
	C581.616699,181.912094 621.605530,181.840103 661.594299,181.778458 
	C664.583984,181.773849 667.623535,181.457367 669.636597,184.506409 
	C670.804138,186.274857 671.580688,187.955887 670.580688,190.069000 
	C669.641785,192.053024 668.228882,193.258545 665.966980,193.297073 
	C664.634216,193.319763 663.301392,193.344833 661.968567,193.344742 
	C593.152405,193.339722 524.336243,193.307098 455.520172,193.388992 
	C451.534271,193.393738 449.194305,191.897461 447.016602,188.621338 
	C435.469116,171.249557 426.742371,152.301956 416.319702,134.307877 
	C415.503204,132.898254 415.100220,131.182037 412.884094,130.000519 
	C410.655426,137.726562 408.458160,145.285614 406.301422,152.856232 
	C405.662109,155.100342 405.165253,157.410477 403.700287,159.289978 
	C401.327026,162.334839 398.323975,163.064163 394.845459,161.331345 
	C393.079407,160.451614 391.390198,159.417709 388.961700,158.059464 
	C385.596252,166.170197 382.317963,173.912445 379.166779,181.706070 
	C375.396576,191.030624 372.400024,193.250229 362.369812,193.258316 
	C312.048889,193.298889 261.727905,193.280472 211.406967,193.290894 
	C209.398041,193.291306 207.468994,192.980637 205.499924,192.522873 
	C202.746338,191.882706 201.482224,190.279709 201.480026,187.626389 
	C201.477783,184.917480 203.032867,183.381897 205.588257,182.701187 
	C208.360916,181.962616 211.182938,181.944748 214.019394,181.944824 
	C264.006561,181.946228 313.993713,181.937393 364.411530,181.906342 
z"/>
<path fill="#000000" opacity="1.000000" stroke="none" 
	d="
M548.902344,148.416519 
	C548.191833,147.568375 547.673950,146.977753 546.346619,145.464020 
	C546.346619,153.292343 546.359619,160.032043 546.337524,166.771637 
	C546.332031,168.432587 546.405151,170.130096 546.095703,171.744385 
	C545.724426,173.681290 544.454834,174.990448 542.362305,175.214508 
	C540.337891,175.431320 538.803711,174.647568 537.796143,172.857941 
	C536.861938,171.198578 536.721863,169.378021 536.720459,167.536407 
	C536.712463,156.717361 536.683716,145.898163 536.731812,135.079330 
	C536.747009,131.652878 537.110291,128.150528 541.097900,126.982918 
	C545.296997,125.753365 547.440796,128.552460 549.439575,131.677307 
	C554.771484,140.013245 560.229187,148.268661 566.695312,156.163467 
	C566.695312,148.732147 566.661438,141.300613 566.711121,133.869629 
	C566.732727,130.633087 566.804016,127.008278 571.175964,126.853790 
	C575.796143,126.690536 576.270386,130.301346 576.282043,133.821457 
	C576.319641,145.139816 576.307068,156.458374 576.293091,167.776840 
	C576.289246,170.888214 575.946716,173.997025 572.387512,175.060654 
	C568.852234,176.117142 566.220398,174.350113 564.313293,171.522156 
	C559.196960,163.935471 554.162170,156.293839 548.902344,148.416519 
z"/>
<path fill="#000000" opacity="1.000000" stroke="none" 
	d="
M302.109192,158.868500 
	C300.792084,157.575989 299.830322,156.332687 298.569672,155.612930 
	C293.871582,152.930603 291.421082,154.352463 291.355316,159.667328 
	C291.312012,163.166580 291.431335,166.672089 291.261749,170.164291 
	C291.114197,173.202896 289.587769,175.213547 286.284302,175.245041 
	C283.194916,175.274506 281.587952,173.350082 281.452301,170.577530 
	C280.833649,157.931442 280.735718,145.273285 281.429718,132.626526 
	C281.635468,128.878082 284.208374,127.636070 287.656738,127.655556 
	C293.822876,127.690392 299.993591,127.534782 306.154480,127.720718 
	C313.087250,127.929955 317.813507,131.593521 319.124023,137.382034 
	C320.594330,143.876495 317.940094,148.982178 311.357605,152.350311 
	C310.930206,152.569016 310.549591,152.879135 309.537537,153.552139 
	C313.423126,157.559280 316.796814,161.812500 318.903992,166.868774 
	C320.089050,169.712479 321.424164,172.788544 317.711090,174.677811 
	C314.170105,176.479523 311.663696,174.547897 309.826965,171.556732 
	C307.299561,167.440750 304.824707,163.292480 302.109192,158.868500 
M306.438843,136.909668 
	C302.602966,134.750946 298.410492,135.427841 294.310120,135.394592 
	C292.224731,135.377686 291.573517,136.566193 291.338531,138.521805 
	C290.336090,146.864990 291.360962,148.044205 299.733459,147.616104 
	C300.879425,147.557495 302.038910,147.403549 303.152466,147.131454 
	C308.962891,145.711700 310.139740,142.736664 306.438843,136.909668 
z"/>
<path fill="#000000" opacity="1.000000" stroke="none" 
	d="
M355.233093,128.088913 
	C361.093689,129.513657 364.346710,132.975037 365.213928,138.444611 
	C366.386627,145.840912 362.484070,150.378159 355.619568,153.330414 
	C359.544128,157.991028 363.203308,162.263596 365.238220,167.595367 
	C366.262054,170.278000 366.912048,172.918243 363.899200,174.587448 
	C360.972137,176.209137 358.313263,175.257034 356.557678,172.533447 
	C354.127808,168.763763 351.963989,164.823669 349.626007,160.993317 
	C347.767303,157.948212 345.540405,155.284637 341.769867,154.566681 
	C338.992645,154.037857 337.224365,154.705811 337.327118,158.047745 
	C337.444641,161.868881 337.386597,165.698242 337.303162,169.521835 
	C337.234192,172.683319 336.079712,175.130890 332.455872,175.247116 
	C328.782684,175.364914 327.385864,172.890213 327.354492,169.782883 
	C327.232025,157.648819 327.238617,145.512314 327.336670,133.377838 
	C327.367249,129.597382 329.503021,127.610939 333.385468,127.668777 
	C340.530609,127.775230 347.676056,127.863098 355.233093,128.088913 
M346.084808,135.360428 
	C336.931000,135.332230 336.155823,136.184082 337.356201,144.655914 
	C337.558502,146.083633 337.827789,147.400665 339.478607,147.510742 
	C343.607788,147.786072 347.767212,148.032043 351.710571,146.361679 
	C353.963348,145.407455 354.804108,143.569794 354.782745,141.181732 
	C354.762634,138.933563 353.791107,137.304138 351.736603,136.537292 
	C350.208527,135.966934 348.548126,135.750977 346.084808,135.360428 
z"/>
<path fill="#000000" opacity="1.000000" stroke="none" 
	d="
M618.365479,140.044495 
	C614.022034,143.538620 612.384338,143.317001 609.592834,138.690216 
	C607.045898,134.468842 603.731445,132.428543 598.785828,133.940933 
	C596.629517,134.600357 594.672668,135.626266 594.477478,138.204041 
	C594.278870,140.828125 596.076111,142.152023 598.216003,142.892242 
	C602.926514,144.521698 607.821533,145.680817 612.407898,147.591949 
	C620.660950,151.031021 623.586060,159.753113 619.054443,167.390579 
	C614.460449,175.133194 606.778320,175.800888 598.864075,175.261826 
	C591.916138,174.788574 586.947205,171.252823 584.390076,164.730087 
	C583.236877,161.788345 582.882446,158.527390 586.531250,157.062866 
	C589.869141,155.723145 591.686279,158.019516 593.112732,160.780914 
	C596.363892,167.074799 600.326782,168.871262 605.900635,166.803070 
	C608.604736,165.799713 610.555542,164.232391 610.628479,161.077484 
	C610.698853,158.036316 608.680481,156.507584 606.256042,155.648285 
	C601.561890,153.984573 596.650696,152.889725 592.050232,151.016891 
	C586.673035,148.827866 584.278381,144.343033 584.684631,138.658142 
	C585.182678,131.688599 591.249390,126.945641 600.027771,126.662895 
	C611.097290,126.306351 617.955383,130.132614 618.962585,137.298996 
	C619.070496,138.066757 618.687500,138.903519 618.365479,140.044495 
z"/>
<path fill="#000000" opacity="1.000000" stroke="none" 
	d="
M458.633911,128.213043 
	C464.693512,126.149483 470.446472,125.973831 476.161652,127.785538 
	C479.951904,128.987015 482.944336,131.234177 484.361633,135.191971 
	C485.385010,138.049637 485.160492,140.627975 482.228424,141.998169 
	C479.521149,143.263336 477.431793,141.889450 475.950287,139.496826 
	C475.251221,138.367813 474.689880,137.098129 473.787079,136.161087 
	C471.099792,133.371964 467.866333,132.710342 464.200409,134.064148 
	C462.207947,134.799973 460.595245,135.809860 460.409790,138.167831 
	C460.220123,140.579803 461.702850,141.961914 463.667236,142.649414 
	C468.051880,144.183914 472.556030,145.377701 476.937408,146.920578 
	C481.311249,148.460770 484.900818,150.868805 486.393799,155.721207 
	C487.780640,160.228653 487.088898,164.376877 484.569519,168.099609 
	C479.967529,174.899689 472.899078,175.779282 465.490784,175.274582 
	C459.095276,174.838867 454.039734,172.035339 450.953949,166.206375 
	C450.567535,165.476456 450.243042,164.684525 450.057922,163.882553 
	C449.412506,161.087189 449.516785,158.340790 452.567596,157.101624 
	C455.678772,155.837952 457.510803,157.795197 458.920532,160.359283 
	C462.604645,167.060165 466.309784,168.851364 471.947937,166.857132 
	C474.724487,165.875076 476.506500,164.179962 476.621704,161.099335 
	C476.734283,158.088760 474.826416,156.487305 472.347260,155.630295 
	C468.115814,154.167542 463.747375,153.097229 459.529297,151.600632 
	C454.444366,149.796463 450.997589,146.421310 450.701355,140.704330 
	C450.401337,134.914383 453.050903,130.835648 458.633911,128.213043 
z"/>
<path fill="#000000" opacity="1.000000" stroke="none" 
	d="
M493.872070,163.849686 
	C493.863556,154.208908 493.788391,145.046753 493.866943,135.885895 
	C493.925110,129.104340 495.423462,127.678612 502.105255,127.656189 
	C509.267883,127.632156 516.430664,127.646469 523.593384,127.659286 
	C526.422485,127.664345 529.242126,127.968094 529.176697,131.705521 
	C529.115356,135.203339 526.367432,135.333740 523.769409,135.345093 
	C518.605713,135.367645 513.436340,135.499725 508.279694,135.308105 
	C503.688416,135.137482 504.329254,138.245453 504.306458,141.040955 
	C504.283173,143.895508 503.823792,146.892807 508.368011,146.690079 
	C513.188477,146.475021 518.026978,146.656021 522.857544,146.680786 
	C525.536865,146.694534 527.495239,147.679138 527.427490,150.702774 
	C527.364685,153.510178 525.374268,154.293716 522.984070,154.322342 
	C518.154053,154.380173 513.320557,154.462143 508.493439,154.339722 
	C505.588715,154.266068 504.362183,155.224915 504.250702,158.326569 
	C503.951355,166.653793 503.818756,166.647018 512.146057,166.652496 
	C516.476990,166.655334 520.807922,166.652756 525.138733,166.679474 
	C527.713257,166.695358 529.999695,167.491272 530.074219,170.430664 
	C530.149536,173.400726 527.889343,174.317917 525.309631,174.330048 
	C516.814697,174.370010 508.316650,174.474594 499.825439,174.291702 
	C495.002533,174.187805 493.931152,172.146500 493.872070,163.849686 
z"/>
<path fill="#000000" opacity="1.000000" stroke="none" 
	d="
M650.938354,154.361908 
	C648.955017,154.364243 647.456482,154.365036 645.957886,154.367416 
	C637.805908,154.380356 637.807739,154.487350 638.271423,162.853729 
	C638.424561,165.618149 639.420654,166.725754 642.177307,166.677124 
	C647.670227,166.580215 653.166321,166.668533 658.661072,166.665207 
	C661.366882,166.663574 663.983765,167.179993 664.060486,170.441299 
	C664.138000,173.736404 661.563049,174.352722 658.831177,174.353714 
	C650.672302,174.356659 642.512756,174.303192 634.354736,174.387039 
	C630.183289,174.429916 628.014038,172.261917 627.962341,168.371582 
	C627.809692,156.885422 627.812073,145.394775 627.954895,133.908386 
	C628.005554,129.829041 630.106506,127.524544 634.588928,127.614639 
	C642.245239,127.768532 649.906860,127.647751 657.566284,127.663872 
	C660.379761,127.669792 663.227783,127.942940 663.177063,131.682678 
	C663.129578,135.178833 660.366516,135.315094 657.777100,135.333817 
	C652.615601,135.371109 647.447876,135.511353 642.293640,135.317780 
	C637.708008,135.145569 638.328796,138.229324 638.313843,141.033722 
	C638.298645,143.883652 637.820923,146.890533 642.366394,146.692154 
	C647.185364,146.481827 652.021790,146.646896 656.850220,146.687134 
	C659.506592,146.709274 661.489014,147.656113 661.377502,150.722946 
	C661.275330,153.529404 659.314209,154.268890 656.917725,154.324295 
	C655.086914,154.366638 653.254700,154.350983 650.938354,154.361908 
z"/>
<path fill="#000000" opacity="1.000000" stroke="none" 
	d="
M238.666199,167.701157 
	C238.660522,156.410248 238.616989,145.586609 238.676636,134.763535 
	C238.707840,129.099564 240.119400,127.712708 245.801910,127.667038 
	C253.294495,127.606804 260.787964,127.665939 268.281067,127.655952 
	C271.239502,127.652008 273.902710,128.374695 273.727417,131.912369 
	C273.560089,135.288544 270.731201,135.374344 268.128052,135.367645 
	C263.798706,135.356506 259.444977,135.645096 255.146454,135.279327 
	C250.318054,134.868484 248.323807,136.679474 248.909180,141.463547 
	C249.087631,142.921967 248.506393,144.454315 249.758606,146.655930 
	C254.895844,146.655930 260.494049,146.665039 266.092163,146.652084 
	C268.876617,146.645660 271.942200,146.756882 272.019592,150.358444 
	C272.105316,154.347488 268.832336,154.360550 265.894836,154.361465 
	C261.732025,154.362762 257.564545,154.495911 253.407852,154.339172 
	C250.200073,154.218201 248.766922,155.504700 248.937500,158.710983 
	C249.016922,160.203842 249.016403,161.718521 248.858246,163.202637 
	C248.571167,165.896378 249.843506,166.715118 252.348434,166.675812 
	C257.841888,166.589615 263.337891,166.649368 268.832733,166.672821 
	C271.434845,166.683914 274.137939,166.813522 274.249908,170.310349 
	C274.372009,174.122467 271.548676,174.358383 268.731232,174.362015 
	C260.905121,174.372086 253.078552,174.309143 245.253098,174.379379 
	C240.972458,174.417786 238.640854,172.597000 238.666199,167.701157 
z"/>
<path fill="#000000" opacity="1.000000" stroke="none" 
	d="
M223.886963,127.646439 
	C226.197891,127.680664 228.038818,127.597580 229.853256,127.779205 
	C232.083511,128.002457 233.728104,129.267349 233.732162,131.583237 
	C233.736282,133.932861 232.083664,135.122284 229.808044,135.253708 
	C227.817291,135.368683 225.805069,135.475281 223.824020,135.315933 
	C220.274811,135.030441 219.199585,136.644958 219.262039,140.028290 
	C219.421722,148.676819 219.346725,157.330399 219.295212,165.981552 
	C219.284424,167.795181 219.188568,169.662491 218.743362,171.405823 
	C218.173370,173.637817 216.791748,175.262421 214.181244,175.253403 
	C211.429581,175.243896 209.803925,173.706421 209.224106,171.199982 
	C208.817078,169.440521 208.728500,167.578812 208.716965,165.761368 
	C208.665253,157.609344 208.493088,149.450073 208.770065,141.307190 
	C208.920334,136.889496 207.752136,134.611374 202.949036,135.327377 
	C201.649567,135.521103 200.290833,135.357513 198.961563,135.302643 
	C196.346786,135.194702 194.204727,134.230118 194.357117,131.263779 
	C194.492371,128.630737 196.551910,127.710281 198.948608,127.691246 
	C205.104050,127.642342 211.260010,127.656509 217.415756,127.647202 
	C219.412231,127.644180 221.408722,127.646584 223.886963,127.646439 
z"/>
</svg>